<svg viewBox="0 0 96 96" xmlns="http://www.w3.org/2000/svg">
  <circle cx="48" cy="48" r="48" fill="#f3d9e4"/>
  <path d="M14 92c2-19 15.5-32 34-32s32 13 34 32" fill="#ffffff"/>
  <path d="M14 92c2-19 15.5-32 34-32s32 13 34 32" fill="none" stroke="#211a1d" stroke-width="2.2" stroke-linejoin="round"/>
  <line x1="48" y1="60" x2="48" y2="92" stroke="#211a1d" stroke-width="1.6" opacity=".5"/>
  <circle cx="48" cy="38" r="17" fill="#ffe3d1"/>
  <circle cx="48" cy="38" r="17" fill="none" stroke="#211a1d" stroke-width="2.2"/>
  <path d="M31 34a17 17 0 0 1 34 0c-6-1.5-11-1.5-17-5-6 3.5-11 3.5-17 5z" fill="#2b2320" stroke="#211a1d" stroke-width="1.4" stroke-linejoin="round"/>
  <path d="M40 60c0 5.5 3.6 9 8 9s8-3.5 8-9v-6h-16v6z" fill="#ffe3d1" stroke="#211a1d" stroke-width="2"/>
  <rect x="36" y="15" width="24" height="13" rx="3" fill="#ffffff" stroke="#211a1d" stroke-width="2.2"/>
  <line x1="40" y1="21.5" x2="56" y2="21.5" stroke="#d94f77" stroke-width="2"/>
  <line x1="48" y1="17" x2="48" y2="26" stroke="#d94f77" stroke-width="2"/>
</svg>
